# xmcd CD database file
#
# Track frame offsets:
#	150
#	2522
#	21706
#	37604
#	62336
#	90898
#	124250
#	151050
#	166541
#	171962
#	188025
#	210740
#	226267
#	242621
#	280441
#
# Disc length: 3935 seconds
#
# Revision: 0
# Processed by: cddbd v1.4PL0 Copyright (c) Steve Scherf et al.
# Submitted via: CDex 1.50Beta5
#
DISCID=ad0f5d0f
DTITLE=The Simpson House Band - Live! At The Harriet Himmel Gilman Theater 01-19-02
DYEAR=2002
DGENRE=Blues
TTITLE0=Introduction #1
TTITLE1=Junk Yark (Lucky)
TTITLE2=Me and My Uncle
TTITLE3=Big Boss Man
TTITLE4=Chain of Fools
TTITLE5=Johny B. Goode
TTITLE6=You are so Beautiful
TTITLE7=Easy Money
TTITLE8=Introduction #2
TTITLE9=Stay Up Late
TTITLE10=Willy and the Hand Jive
TTITLE11=Move it on Over
TTITLE12=Move Over
TTITLE13=Evil Ways
TTITLE14=Everyone Can See
EXTD=YEAR: 2002
EXTT0=
EXTT1=
EXTT2=
EXTT3=
EXTT4=
EXTT5=
EXTT6=
EXTT7=
EXTT8=
EXTT9=
EXTT10=
EXTT11=
EXTT12=
EXTT13=
EXTT14=
PLAYORDER=
